# xmcd
#
# Track frame offsets:
#  183
#  11048
#  21780
#  32020
#  43688
#  55415
#  66745
#  76348
#  85708
#  97765
#  107208
#  114620
#  125433
#  134120
#  143858
#  157408
#  168908
#  177970
#
# Disc length: 2505 seconds
#
# Revision: 0
# Processed by: cddbd v1.4b41PL3 Copyright (c) Steve Scherf et al.
# Submitted via: AltoMP3 Maker 3.0
#
DISCID=fe09c712
DTITLE=Conway Twitty - Sittin' In A Dim Café
DYEAR=1900
DGENRE=
TTITLE0=Mona Lisa
TTITLE1=Let Me Be The Judge
TTITLE2=Lonely Blue Boy
TTITLE3=Have I Been Away Too Long
TTITLE4=Broken Heart
TTITLE5=You Made Me What I Am
TTITLE6=Don't Go To Fare
TTITLE7=I Wonder If You Told Her
TTITLE8=Sittin' In A Dim Cafè
TTITLE9=Where I Stand
TTITLE10=Treat Me Mean
TTITLE11=Turn The Other Cheek
TTITLE12=Blue Is The Way I Feel
TTITLE13=Eversince You Went Away
TTITLE14=Reputation
TTITLE15=Big Town
TTITLE16=He Had A True Love
TTITLE17=It's Only Make Believe
EXTD=
EXTT0=
EXTT1=
EXTT2=
EXTT3=
EXTT4=
EXTT5=
EXTT6=
EXTT7=
EXTT8=
EXTT9=
EXTT10=
EXTT11=
EXTT12=
EXTT13=
EXTT14=
EXTT15=
EXTT16=
EXTT17=
PLAYORDER=
